<?xml version="1.0" encoding="UTF-8" standalone="no"?>
<!DOCTYPE svg PUBLIC "-//W3C//DTD SVG 1.1//EN" "http://www.w3.org/Graphics/SVG/1.1/DTD/svg11.dtd">
<svg version="1.1" xmlns:xl="http://www.w3.org/1999/xlink" xmlns="http://www.w3.org/2000/svg" xmlns:dc="http://purl.org/dc/elements/1.1/" viewBox="-1 50 399 277" width="399" height="277">
  <defs/>
  <g id="Canvas_1" stroke-dasharray="none" fill-opacity="1" stroke-opacity="1" stroke="none" fill="none">
    <title>Canvas 1</title>
    <rect fill="white" x="-1" y="50" width="399" height="277"/>
    <g id="Canvas_1_Layer_1">
      <title>Layer 1</title>
      <g id="Graphic_2">
        <path d="M 9 283.46457 L 274.46457 283.46457 C 279.43513 283.46457 283.46457 287.494 283.46457 292.46457 L 283.46457 316.98425 C 283.46457 321.9548 279.43513 325.98425 274.46457 325.98425 L 9 325.98425 C 4.0294373 325.98425 6087184e-22 321.9548 0 316.98425 L 17763568e-22 292.46457 C 23850752e-22 287.494 4.0294373 283.46457 9 283.46457 Z" fill="#dadada"/>
        <path d="M 9 283.46457 L 274.46457 283.46457 C 279.43513 283.46457 283.46457 287.494 283.46457 292.46457 L 283.46457 316.98425 C 283.46457 321.9548 279.43513 325.98425 274.46457 325.98425 L 9 325.98425 C 4.0294373 325.98425 6087184e-22 321.9548 0 316.98425 L 17763568e-22 292.46457 C 23850752e-22 287.494 4.0294373 283.46457 9 283.46457 Z" stroke="black" stroke-linecap="butt" stroke-linejoin="round" stroke-width="1"/>
        <text transform="translate(5 292.9444)" fill="black">
          <tspan font-family="Helvetica Neue" font-size="20" fill="black" x="106.04228" y="19">WASM</tspan>
        </text>
      </g>
      <g id="Graphic_4">
        <path d="M 9 231.02362 L 274.46457 231.02362 C 279.43513 231.02362 283.46457 235.05306 283.46457 240.02362 L 283.46457 264.5433 C 283.46457 269.51387 279.43513 273.5433 274.46457 273.5433 L 9 273.5433 C 4.0294373 273.5433 6087184e-22 269.51387 0 264.5433 L 17763568e-22 240.02362 C 23850752e-22 235.05306 4.0294373 231.02362 9 231.02362 Z" fill="#73fb79"/>
        <path d="M 9 231.02362 L 274.46457 231.02362 C 279.43513 231.02362 283.46457 235.05306 283.46457 240.02362 L 283.46457 264.5433 C 283.46457 269.51387 279.43513 273.5433 274.46457 273.5433 L 9 273.5433 C 4.0294373 273.5433 6087184e-22 269.51387 0 264.5433 L 17763568e-22 240.02362 C 23850752e-22 235.05306 4.0294373 231.02362 9 231.02362 Z" stroke="#009193" stroke-linecap="butt" stroke-linejoin="round" stroke-width="1"/>
        <text transform="translate(5 240.50347)" fill="black">
          <tspan font-family="Helvetica Neue" font-size="20" fill="black" x="86.16228" y="19">Emscripten</tspan>
        </text>
      </g>
      <g id="Graphic_5">
        <path d="M 9 178.58268 L 104.38583 178.58268 C 109.35639 178.58268 113.38583 182.61212 113.38583 187.58268 L 113.38583 212.10236 C 113.38583 217.07293 109.35639 221.10236 104.38583 221.10236 L 9 221.10236 C 4.0294373 221.10236 6087184e-22 217.07293 0 212.10236 L 17763568e-22 187.58268 C 23850752e-22 182.61212 4.0294373 178.58268 9 178.58268 Z" fill="#73fb79"/>
        <path d="M 9 178.58268 L 104.38583 178.58268 C 109.35639 178.58268 113.38583 182.61212 113.38583 187.58268 L 113.38583 212.10236 C 113.38583 217.07293 109.35639 221.10236 104.38583 221.10236 L 9 221.10236 C 4.0294373 221.10236 6087184e-22 217.07293 0 212.10236 L 17763568e-22 187.58268 C 23850752e-22 182.61212 4.0294373 178.58268 9 178.58268 Z" stroke="#009193" stroke-linecap="butt" stroke-linejoin="round" stroke-width="1"/>
        <text transform="translate(5 188.06252)" fill="black">
          <tspan font-family="Helvetica Neue" font-size="20" fill="black" x="12.982913" y="19">CPython</tspan>
        </text>
      </g>
      <g id="Graphic_6">
        <path d="M 274.03937 178.58268 L 274.46457 178.58268 C 279.43513 178.58268 283.46457 182.61212 283.46457 187.58268 L 283.46457 212.10236 C 283.46457 217.07293 279.43513 221.10236 274.46457 221.10236 L 274.03937 221.10236 C 269.0688 221.10236 265.03937 217.07293 265.03937 212.10236 L 265.03937 187.58268 C 265.03937 182.61212 269.0688 178.58268 274.03937 178.58268 Z" fill="#73fb79"/>
        <path d="M 274.03937 178.58268 L 274.46457 178.58268 C 279.43513 178.58268 283.46457 182.61212 283.46457 187.58268 L 283.46457 212.10236 C 283.46457 217.07293 279.43513 221.10236 274.46457 221.10236 L 274.03937 221.10236 C 269.0688 221.10236 265.03937 217.07293 265.03937 212.10236 L 265.03937 187.58268 C 265.03937 182.61212 269.0688 178.58268 274.03937 178.58268 Z" stroke="#009193" stroke-linecap="butt" stroke-linejoin="round" stroke-width="1"/>
      </g>
      <g id="Graphic_7">
        <path d="M 128.05512 178.58268 L 128.48032 178.58268 C 133.45088 178.58268 137.48032 182.61212 137.48032 187.58268 L 137.48032 212.10236 C 137.48032 217.07293 133.45088 221.10236 128.48032 221.10236 L 128.05512 221.10236 C 123.08456 221.10236 119.05512 217.07293 119.05512 212.10236 L 119.05512 187.58268 C 119.05512 182.61212 123.08456 178.58268 128.05512 178.58268 Z" fill="#73fb79"/>
        <path d="M 128.05512 178.58268 L 128.48032 178.58268 C 133.45088 178.58268 137.48032 182.61212 137.48032 187.58268 L 137.48032 212.10236 C 137.48032 217.07293 133.45088 221.10236 128.48032 221.10236 L 128.05512 221.10236 C 123.08456 221.10236 119.05512 217.07293 119.05512 212.10236 L 119.05512 187.58268 C 119.05512 182.61212 123.08456 178.58268 128.05512 178.58268 Z" stroke="#009193" stroke-linecap="butt" stroke-linejoin="round" stroke-width="1"/>
      </g>
      <g id="Graphic_8">
        <path d="M 152.1496 178.58268 L 152.5748 178.58268 C 157.54537 178.58268 161.5748 182.61212 161.5748 187.58268 L 161.5748 212.10236 C 161.5748 217.07293 157.54537 221.10236 152.5748 221.10236 L 152.1496 221.10236 C 147.17904 221.10236 143.1496 217.07293 143.1496 212.10236 L 143.1496 187.58268 C 143.1496 182.61212 147.17904 178.58268 152.1496 178.58268 Z" fill="#73fb79"/>
        <path d="M 152.1496 178.58268 L 152.5748 178.58268 C 157.54537 178.58268 161.5748 182.61212 161.5748 187.58268 L 161.5748 212.10236 C 161.5748 217.07293 157.54537 221.10236 152.5748 221.10236 L 152.1496 221.10236 C 147.17904 221.10236 143.1496 217.07293 143.1496 212.10236 L 143.1496 187.58268 C 143.1496 182.61212 147.17904 178.58268 152.1496 178.58268 Z" stroke="#009193" stroke-linecap="butt" stroke-linejoin="round" stroke-width="1"/>
      </g>
      <g id="Graphic_9">
        <path d="M 176.2441 178.58268 L 176.6693 178.58268 C 181.63986 178.58268 185.6693 182.61212 185.6693 187.58268 L 185.6693 212.10236 C 185.6693 217.07293 181.63986 221.10236 176.6693 221.10236 L 176.2441 221.10236 C 171.27353 221.10236 167.2441 217.07293 167.2441 212.10236 L 167.2441 187.58268 C 167.2441 182.61212 171.27353 178.58268 176.2441 178.58268 Z" fill="#73fb79"/>
        <path d="M 176.2441 178.58268 L 176.6693 178.58268 C 181.63986 178.58268 185.6693 182.61212 185.6693 187.58268 L 185.6693 212.10236 C 185.6693 217.07293 181.63986 221.10236 176.6693 221.10236 L 176.2441 221.10236 C 171.27353 221.10236 167.2441 217.07293 167.2441 212.10236 L 167.2441 187.58268 C 167.2441 182.61212 171.27353 178.58268 176.2441 178.58268 Z" stroke="#009193" stroke-linecap="butt" stroke-linejoin="round" stroke-width="1"/>
      </g>
      <g id="Graphic_10">
        <path d="M 249.94488 178.58268 L 250.37008 178.58268 C 255.34064 178.58268 259.37008 182.61212 259.37008 187.58268 L 259.37008 212.10236 C 259.37008 217.07293 255.34064 221.10236 250.37008 221.10236 L 249.94488 221.10236 C 244.97432 221.10236 240.94488 217.07293 240.94488 212.10236 L 240.94488 187.58268 C 240.94488 182.61212 244.97432 178.58268 249.94488 178.58268 Z" fill="#73fb79"/>
        <path d="M 249.94488 178.58268 L 250.37008 178.58268 C 255.34064 178.58268 259.37008 182.61212 259.37008 187.58268 L 259.37008 212.10236 C 259.37008 217.07293 255.34064 221.10236 250.37008 221.10236 L 249.94488 221.10236 C 244.97432 221.10236 240.94488 217.07293 240.94488 212.10236 L 240.94488 187.58268 C 240.94488 182.61212 244.97432 178.58268 249.94488 178.58268 Z" stroke="#009193" stroke-linecap="butt" stroke-linejoin="round" stroke-width="1"/>
      </g>
      <g id="Line_11">
        <line x1="191" y1="199.66667" x2="240.94488" y2="199.81514" stroke="#009193" stroke-linecap="round" stroke-linejoin="round" stroke-dasharray="2.0,8.0" stroke-width="2"/>
      </g>
      <g id="Graphic_13">
        <text transform="translate(288.46457 160.66458)" fill="#00fb92">
          <tspan font-family="Helvetica Neue" font-size="100" fill="#00fb92" x="0" y="93">}</tspan>
        </text>
      </g>
      <g id="Graphic_14">
        <text transform="translate(316.43124 212.92914)" fill="#5e5e5e">
          <tspan font-family="Helvetica Neue" font-size="20" fill="#5e5e5e" x="1.5583478" y="19">Pyodide</tspan>
        </text>
      </g>
      <g id="Graphic_15">
        <path d="M 9 126.14173 L 51.94488 126.14173 C 56.915445 126.14173 60.94488 130.17117 60.94488 135.14173 L 60.94488 159.66142 C 60.94488 164.63198 56.915445 168.66142 51.94488 168.66142 L 9 168.66142 C 4.0294373 168.66142 -3847113e-20 164.63198 -3907985e-20 159.66142 L -37303494e-21 135.14173 C -36694775e-21 130.17117 4.0294373 126.14173 9 126.14173 Z" fill="#73fdd6"/>
        <path d="M 9 126.14173 L 51.94488 126.14173 C 56.915445 126.14173 60.94488 130.17117 60.94488 135.14173 L 60.94488 159.66142 C 60.94488 164.63198 56.915445 168.66142 51.94488 168.66142 L 9 168.66142 C 4.0294373 168.66142 -3847113e-20 164.63198 -3907985e-20 159.66142 L -37303494e-21 135.14173 C -36694775e-21 130.17117 4.0294373 126.14173 9 126.14173 Z" stroke="#009193" stroke-linecap="butt" stroke-linejoin="round" stroke-width="1"/>
        <text transform="translate(5 135.62158)" fill="black">
          <tspan font-family="Helvetica Neue" font-size="20" fill="black" x="4.732441" y="19">Tags</tspan>
        </text>
      </g>
      <g id="Graphic_16">
        <path d="M 75.61417 126.14173 L 144.07087 126.14173 C 149.04143 126.14173 153.07087 130.17117 153.07087 135.14173 L 153.07087 159.66142 C 153.07087 164.63198 149.04143 168.66142 144.07087 168.66142 L 75.61417 168.66142 C 70.64361 168.66142 66.61417 164.63198 66.61417 159.66142 L 66.61417 135.14173 C 66.61417 130.17117 70.64361 126.14173 75.61417 126.14173 Z" fill="#73fdd6"/>
        <path d="M 75.61417 126.14173 L 144.07087 126.14173 C 149.04143 126.14173 153.07087 130.17117 153.07087 135.14173 L 153.07087 159.66142 C 153.07087 164.63198 149.04143 168.66142 144.07087 168.66142 L 75.61417 168.66142 C 70.64361 168.66142 66.61417 164.63198 66.61417 159.66142 L 66.61417 135.14173 C 66.61417 130.17117 70.64361 126.14173 75.61417 126.14173 Z" stroke="#009193" stroke-linecap="butt" stroke-linejoin="round" stroke-width="1"/>
        <text transform="translate(71.61417 135.62158)" fill="black">
          <tspan font-family="Helvetica Neue" font-size="20" fill="black" x="1.5583478" y="19">Widgets</tspan>
        </text>
      </g>
      <g id="Graphic_17">
        <path d="M 167.74016 126.14173 L 274.46457 126.14173 C 279.43513 126.14173 283.46457 130.17117 283.46457 135.14173 L 283.46457 159.66142 C 283.46457 164.63198 279.43513 168.66142 274.46457 168.66142 L 167.74016 168.66142 C 162.7696 168.66142 158.74016 164.63198 158.74016 159.66142 L 158.74016 135.14173 C 158.74016 130.17117 162.7696 126.14173 167.74016 126.14173 Z" fill="#73fdd6"/>
        <path d="M 167.74016 126.14173 L 274.46457 126.14173 C 279.43513 126.14173 283.46457 130.17117 283.46457 135.14173 L 283.46457 159.66142 C 283.46457 164.63198 279.43513 168.66142 274.46457 168.66142 L 167.74016 168.66142 C 162.7696 168.66142 158.74016 164.63198 158.74016 159.66142 L 158.74016 135.14173 C 158.74016 130.17117 162.7696 126.14173 167.74016 126.14173 Z" stroke="#009193" stroke-linecap="butt" stroke-linejoin="round" stroke-width="1"/>
        <text transform="translate(163.74016 135.62158)" fill="black">
          <tspan font-family="Helvetica Neue" font-size="20" fill="black" x="3.8322055" y="19">Namespace</tspan>
        </text>
      </g>
      <g id="Graphic_18">
        <path d="M 9 73.70079 L 169.58268 73.70079 C 174.55324 73.70079 178.58268 77.730225 178.58268 82.70079 L 178.58268 107.22047 C 178.58268 112.19104 174.55324 116.22047 169.58268 116.22047 L 9 116.22047 C 4.0294373 116.22047 6087184e-22 112.19104 0 107.22047 L 17763568e-22 82.70079 C 23850752e-22 77.730225 4.0294373 73.70079 9 73.70079 Z" fill="#73fdd6"/>
        <path d="M 9 73.70079 L 169.58268 73.70079 C 174.55324 73.70079 178.58268 77.730225 178.58268 82.70079 L 178.58268 107.22047 C 178.58268 112.19104 174.55324 116.22047 169.58268 116.22047 L 9 116.22047 C 4.0294373 116.22047 6087184e-22 112.19104 0 107.22047 L 17763568e-22 82.70079 C 23850752e-22 77.730225 4.0294373 73.70079 9 73.70079 Z" stroke="#009193" stroke-linecap="butt" stroke-linejoin="round" stroke-width="1"/>
        <text transform="translate(5 83.18063)" fill="black">
          <tspan font-family="Helvetica Neue" font-size="20" fill="black" x="4.661336" y="19">JavaScript Bridge</tspan>
        </text>
      </g>
      <g id="Graphic_19">
        <path d="M 193.25197 73.70079 L 226.2756 73.70079 C 231.24616 73.70079 235.2756 77.730225 235.2756 82.70079 L 235.2756 107.22047 C 235.2756 112.19104 231.24616 116.22047 226.2756 116.22047 L 193.25197 116.22047 C 188.2814 116.22047 184.25197 112.19104 184.25197 107.22047 L 184.25197 82.70079 C 184.25197 77.730225 188.2814 73.70079 193.25197 73.70079 Z" fill="#73fdd6"/>
        <path d="M 193.25197 73.70079 L 226.2756 73.70079 C 231.24616 73.70079 235.2756 77.730225 235.2756 82.70079 L 235.2756 107.22047 C 235.2756 112.19104 231.24616 116.22047 226.2756 116.22047 L 193.25197 116.22047 C 188.2814 116.22047 184.25197 112.19104 184.25197 107.22047 L 184.25197 82.70079 C 184.25197 77.730225 188.2814 73.70079 193.25197 73.70079 Z" stroke="#009193" stroke-linecap="butt" stroke-linejoin="round" stroke-width="1"/>
        <text transform="translate(189.25197 83.18063)" fill="black">
          <tspan font-family="Helvetica Neue" font-size="20" fill="black" x="6.99181" y="19">I/O</tspan>
        </text>
      </g>
      <g id="Line_20">
        <line x1="240.16457" y1="94.99295" x2="283.46457" y2="95" stroke="#009193" stroke-linecap="round" stroke-linejoin="round" stroke-dasharray="2.0,8.0" stroke-width="2"/>
      </g>
      <g id="Graphic_21">
        <text transform="translate(288.46457 55.6063)" fill="#73fdd6">
          <tspan font-family="Helvetica Neue" font-size="100" fill="#73fdd6" x="0" y="93">}</tspan>
        </text>
      </g>
      <g id="Graphic_22">
        <text transform="translate(316.43124 109.46457)" fill="#5e5e5e">
          <tspan font-family="Helvetica Neue" font-size="20" fill="#5e5e5e" x=".26834778" y="19">PyScript</tspan>
        </text>
      </g>
    </g>
  </g>
</svg>
